Coordinates
version=1
nRows=17
nColumns=40
inDegrees=yes

Units are S.I. units (second, meters, Newtons, ...)
Angles are in degrees.

endheader
time	pelvis_tilt	pelvis_list	pelvis_rotation	pelvis_tx	pelvis_ty	pelvis_tz	hip_flexion_r	hip_adduction_r	hip_rotation_r	knee_angle_r	knee_angle_r_beta	ankle_angle_r	subtalar_angle_r	mtp_angle_r	hip_flexion_l	hip_adduction_l	hip_rotation_l	knee_angle_l	knee_angle_l_beta	ankle_angle_l	subtalar_angle_l	mtp_angle_l	lumbar_extension	lumbar_bending	lumbar_rotation	arm_flex_r	arm_add_r	arm_rot_r	elbow_flex_r	pro_sup_r	wrist_flex_r	wrist_dev_r	arm_flex_l	arm_add_l	arm_rot_l	elbow_flex_l	pro_sup_l	wrist_flex_l	wrist_dev_l
     36.04000000	     -7.72317557	     -5.15459859	     -2.63434499	      1.03739294	      0.93262384	      0.43500061	     36.85948974	     -5.03975116	     -6.76768459	     69.65479765	     69.65479765	      2.52030736	    -12.24844800	     -1.32598928	     16.62179830	     -6.09042376	     -7.86500329	     19.49159332	     19.49159332	     13.39123038	     -4.25600720	     -0.80204704	    -11.78115973	      4.86293496	      2.52188808	      2.49376036	    -15.73553929	     -1.44930079	     74.35082239	     44.92876617	      0.00000000	      0.00000000	     16.92897911	    -19.34494776	      9.62674292	     58.01367966	     46.06380628	      0.00000000	      0.00000000
     36.05142857	     -7.58808542	     -5.28492561	     -2.80979632	      1.03684384	      0.93284306	      0.43456988	     37.86655308	     -4.62509699	     -6.57351888	     68.11359495	     68.11359495	      2.54699314	    -12.20420317	     -1.49482597	     15.77519214	     -6.12105398	     -7.73437428	     19.28028137	     19.28028137	     13.76601686	     -4.66302309	     -0.76776977	    -11.99084138	      5.07688546	      3.07648787	      0.86303406	    -16.30836416	     -1.57810412	     71.35628254	     45.03261022	      0.00000000	      0.00000000	     18.91768691	    -19.34939750	      9.54444771	     60.00107112	     46.12820742	      0.00000000	      0.00000000
     36.06285714	     -7.41773970	     -5.44773400	     -2.91146548	      1.03637489	      0.93307930	      0.43405228	     38.65310745	     -4.21365498	     -6.46497416	     66.32866241	     66.32866241	      2.54709038	    -12.09692044	     -1.53697775	     14.90340427	     -6.17068629	     -7.55722782	     19.07343927	     19.07343927	     14.14304786	     -4.95464258	     -0.74628819	    -12.25312390	      5.37673820	      3.49018542	     -0.61081516	    -16.70582757	     -1.74821945	     68.20917383	     45.14174371	      0.00000000	      0.00000000	     20.81026686	    -19.37861436	      9.51976657	     61.96695167	     46.18252764	      0.00000000	      0.00000000
     36.07428571	     -7.35679131	     -5.45639003	     -3.06973919	      1.03581126	      0.93309055	      0.43372248	     39.45936012	     -3.89927145	     -6.23538802	     64.33798469	     64.33798469	      2.34112522	    -12.00061476	     -2.05287801	     14.14272737	     -6.05169455	     -7.33112918	     18.82050439	     18.82050439	     14.47531926	     -5.48119406	     -0.56781622	    -12.30466729	      5.34632589	      3.08530396	     -0.06516097	    -15.93219759	     -2.98225851	     61.04726396	     45.43895307	      0.00000000	      0.00000000	     22.04176914	    -20.61573193	     10.41124363	     64.81940426	     46.21564048	      0.00000000	      0.00000000
     36.08571429	     -7.18032298	     -5.64656048	     -3.18208611	      1.03539350	      0.93315073	      0.43340719	     39.92826076	     -3.43341416	     -6.18003461	     62.06274501	     62.06274501	      2.36029754	    -11.77705608	     -1.86855944	     13.31708916	     -6.16715577	     -7.22789173	     18.69923851	     18.69923851	     14.88448008	     -5.69259943	     -0.57945267	    -12.61048630	      5.65486139	      3.54222809	     -1.49829084	    -16.44017878	     -2.92455993	     58.55059033	     45.51681897	      0.00000000	      0.00000000	     23.90413274	    -20.46818552	     10.07473281	     66.67708232	     46.29420043	      0.00000000	      0.00000000
     36.09714286	     -7.07949002	     -5.65704401	     -3.38268593	      1.03496516	      0.93296824	      0.43325721	     40.39462449	     -3.05995379	     -5.94488698	     59.57781756	     59.57781756	      2.37512668	    -11.44362476	     -1.74631602	     12.55645454	     -6.10181804	     -7.21136234	     18.55410870	     18.55410870	     15.27549431	     -5.98019651	     -0.50769208	    -12.80246294	      5.68578668	      4.04830308	     -2.16907752	    -16.58822890	     -3.15471760	     54.08363413	     45.67880952	      0.00000000	      0.00000000	     25.59590612	    -20.46807660	     10.05646498	     69.00908770	     46.36477306	      0.00000000	      0.00000000
     36.10857143	     -7.03537244	     -5.64697917	     -3.49187765	      1.03456788	      0.93264169	      0.43308732	     40.73844598	     -2.77286036	     -5.84098573	     56.78631439	     56.78631439	      2.36001194	    -10.98270371	     -1.71960562	     11.89123082	     -6.01494203	     -7.16898213	     18.43488524	     18.43488524	     15.62965523	     -6.17069543	     -0.39063356	    -12.89210530	      5.72027675	      3.93597831	     -2.07023287	    -16.31095460	     -3.60385574	     48.60861081	     45.88957041	      0.00000000	      0.00000000	     26.93132485	    -20.98887063	     10.05531112	     71.39177305	     46.44194244	      0.00000000	      0.00000000
     36.12000000	     -6.94297132	     -5.76830231	     -3.59232679	      1.03442611	      0.93229102	      0.43306758	     40.75751201	     -2.40131700	     -5.97679019	     53.58852781	     53.58852781	      2.45932887	    -10.25642541	     -1.64277662	     11.15312329	     -6.08379652	     -7.11343452	     18.32896868	     18.32896868	     16.09851300	     -6.30559566	     -0.39548807	    -13.00550548	      5.92166272	      4.02608262	     -2.55599114	    -16.37026681	     -3.79406772	     45.17022129	     46.01704390	      0.00000000	      0.00000000	     28.21715498	    -21.14071817	      9.77689080	     73.41707547	     46.52236684	      0.00000000	      0.00000000
     36.13142857	     -6.92167954	     -5.69786662	     -3.73056576	      1.03432974	      0.93167678	      0.43315513	     40.75112719	     -2.16256872	     -5.98998425	     50.18002005	     50.18002005	      2.50996308	     -9.35953540	     -1.76326526	     10.46112351	     -5.96147065	     -7.18873945	     18.17023148	     18.17023148	     16.53896524	     -6.32507775	     -0.37109729	    -13.04278828	      5.85227736	      4.10058896	     -2.66240661	    -16.21881956	     -4.05738091	     40.68115129	     46.19020974	      0.00000000	      0.00000000	     29.39898764	    -21.36889240	      9.52394843	     75.96107778	     46.61606295	      0.00000000	      0.00000000
     36.14285714	     -6.97987695	     -5.65368394	     -3.78057495	      1.03431283	      0.93097828	      0.43324831	     40.55294877	     -1.93431031	     -6.19083109	     46.32364573	     46.32364573	      2.17733212	     -8.45499963	     -2.45517016	      9.87398773	     -5.87820732	     -7.21833697	     18.03055562	     18.03055562	     16.99571262	     -6.21248939	     -0.25429232	    -12.90516809	      5.87757894	      3.00002161	     -0.89118155	    -15.52400420	     -4.87185444	     33.65880892	     46.49240471	      0.00000000	      0.00000000	     29.48558409	    -22.61461003	      8.69813516	     79.03844303	     46.79616492	      0.00000000	      0.00000000
     36.15428571	     -6.95393148	     -5.63146499	     -3.83848166	      1.03455983	      0.93025462	      0.43337905	     40.06819639	     -1.70913538	     -6.54686067	     42.27295045	     42.27295045	      2.19665835	     -6.99067880	     -2.08004565	      9.11939613	     -5.80408144	     -7.25137847	     17.78925025	     17.78925025	     17.39809744	     -6.14051781	     -0.36110510	    -12.93313278	      5.96021667	      3.30206442	     -2.06060154	    -15.69376053	     -4.89157907	     32.36372253	     46.53218154	      0.00000000	      0.00000000	     30.74059065	    -22.32591827	      8.28703657	     80.73429180	     46.87275750	      0.00000000	      0.00000000
     36.16571429	     -6.90389152	     -5.42046883	     -3.89302357	      1.03508064	      0.92938133	      0.43358691	     39.41838769	     -1.68966262	     -7.01993182	     38.13362622	     38.13362622	      2.23926774	     -5.15954455	     -1.81785293	      8.25431659	     -5.53630995	     -7.49090604	     17.41296907	     17.41296907	     17.77091131	     -5.84582722	     -0.49956180	    -12.98616746	      5.74280468	      3.67819161	     -2.84843838	    -15.67192815	     -4.97625339	     30.08388914	     46.61748830	      0.00000000	      0.00000000	     31.81675341	    -22.12204507	      8.02974406	     83.26840115	     46.96486295	      0.00000000	      0.00000000
     36.17714286	     -6.98737955	     -5.32518492	     -3.87103672	      1.03567559	      0.92832044	      0.43389625	     38.66646246	     -1.47300557	     -7.49415421	     33.75850571	     33.75850571	      1.99445270	     -3.56049747	     -1.06242031	      7.56245892	     -5.40097719	     -7.51600073	     17.08747338	     17.08747338	     18.13700007	     -5.64921427	     -0.66361095	    -12.78013911	      5.77418690	      3.60907944	     -3.71038034	    -15.60770227	     -4.99045619	     29.01015074	     46.65353010	      0.00000000	      0.00000000	     32.77016898	    -22.17484359	      7.83121291	     84.67520006	     47.01735388	      0.00000000	      0.00000000
     36.18857143	     -6.81179348	     -5.04847421	     -3.82201868	      1.03677195	      0.92737886	      0.43415752	     37.56715678	     -1.56338749	     -8.33779022	     29.61913237	     29.61913237	      1.91717108	     -1.20359731	     -0.15232478	      6.44057602	     -5.05392956	     -7.77542950	     16.53348108	     16.53348108	     18.49193285	     -5.07673400	     -0.94054803	    -12.89358833	      5.51468188	      3.78333440	     -4.39596516	    -15.49724410	     -5.05239345	     27.06855634	     46.72995976	      0.00000000	      0.00000000	     33.48651285	    -22.10926922	      7.72283109	     87.36812676	     47.09979283	      0.00000000	      0.00000000
     36.20000000	     -6.79811601	     -4.85375780	     -3.69053269	      1.03800256	      0.92612304	      0.43461594	     36.47525018	     -1.46646163	     -9.13004818	     25.52955647	     25.52955647	      1.62702951	      0.54822150	      1.06375263	      5.53895911	     -4.81685399	     -7.85027024	     16.05872801	     16.05872801	     18.84469750	     -4.67052106	     -1.19262640	    -12.72970970	      5.37893609	      3.68510325	     -5.21317757	    -15.36473456	     -5.07394093	     26.09817991	     46.76330754	      0.00000000	      0.00000000	     34.14214699	    -22.11243530	      7.59801540	     89.03370228	     47.15426002	      0.00000000	      0.00000000
     36.21142857	     -6.71847805	     -4.52777505	     -3.53833770	      1.03955332	      0.92479248	      0.43513868	     35.51626554	     -1.62300347	    -10.23765074	     22.34444179	     22.34444179	      2.39747053	      2.90445056	      5.03270043	      4.44651802	     -4.45461473	     -8.13515902	     15.37650210	     15.37650210	     18.98701326	     -3.93009799	     -1.98385165	    -12.61891280	      5.05028147	      2.93371592	     -5.00930788	    -15.02465436	     -5.39332354	     23.78009041	     46.87195862	      0.00000000	      0.00000000	     33.78440878	    -22.78614530	      6.73379063	     92.54038456	     47.37672564	      0.00000000	      0.00000000
     36.22285714	     -6.66016618	     -4.25889995	     -3.31998719	      1.04131442	      0.92325263	      0.43585099	     34.43808264	     -1.61045229	    -11.12147389	     19.28161485	     19.28161485	      2.04258919	      4.15421731	      6.10285747	      3.45439942	     -4.15591576	     -8.17369303	     14.87400977	     14.87400977	     19.36809740	     -3.45589419	     -2.19196565	    -12.40039295	      4.80717569	      2.96893164	     -6.03978168	    -14.85228604	     -5.37867193	     23.46448403	     46.87074097	      0.00000000	      0.00000000	     34.46609129	    -22.56456884	      6.74991123	     93.76590887	     47.41256181	      0.00000000	      0.00000000
